<mxfile host="Electron" agent="Mozilla/5.0 (Macintosh; Intel Mac OS X 10_15_7) AppleWebKit/537.36 (KHTML, like Gecko) draw.io/25.0.2 Chrome/128.0.6613.186 Electron/32.2.5 Safari/537.36" version="25.0.2">
  <diagram id="Ht1M8jgEwFfnCIfOTk4-" name="Page-1">
    <mxGraphModel dx="606" dy="1323" grid="0" gridSize="10" guides="1" tooltips="1" connect="1" arrows="1" fold="1" page="1" pageScale="1" pageWidth="1169" pageHeight="827" math="0" shadow="0">
      <root>
        <mxCell id="0" />
        <mxCell id="1" parent="0" />
        <mxCell id="wMCjaDI-WwXmUcqfbWN0-4" value="AWS Account | networking" style="points=[[0,0],[0.25,0],[0.5,0],[0.75,0],[1,0],[1,0.25],[1,0.5],[1,0.75],[1,1],[0.75,1],[0.5,1],[0.25,1],[0,1],[0,0.75],[0,0.5],[0,0.25]];outlineConnect=0;gradientColor=none;html=1;whiteSpace=wrap;fontSize=12;fontStyle=0;container=1;pointerEvents=0;collapsible=0;recursiveResize=0;shape=mxgraph.aws4.group;grIcon=mxgraph.aws4.group_account;strokeColor=#CD2264;fillColor=none;verticalAlign=top;align=left;spacingLeft=30;fontColor=#CD2264;dashed=0;" vertex="1" parent="1">
          <mxGeometry x="484" y="-476.5" width="300" height="279.5" as="geometry" />
        </mxCell>
        <mxCell id="wMCjaDI-WwXmUcqfbWN0-5" value="AWS Account |&amp;nbsp;&lt;span style=&quot;background-color: initial;&quot;&gt;kubernetes&lt;/span&gt;" style="points=[[0,0],[0.25,0],[0.5,0],[0.75,0],[1,0],[1,0.25],[1,0.5],[1,0.75],[1,1],[0.75,1],[0.5,1],[0.25,1],[0,1],[0,0.75],[0,0.5],[0,0.25]];outlineConnect=0;gradientColor=none;html=1;whiteSpace=wrap;fontSize=12;fontStyle=0;container=1;pointerEvents=0;collapsible=0;recursiveResize=0;shape=mxgraph.aws4.group;grIcon=mxgraph.aws4.group_account;strokeColor=#CD2264;fillColor=none;verticalAlign=top;align=left;spacingLeft=30;fontColor=#CD2264;dashed=0;" vertex="1" parent="1">
          <mxGeometry x="834" y="-766.5" width="280" height="270" as="geometry" />
        </mxCell>
        <mxCell id="wMCjaDI-WwXmUcqfbWN0-6" value="AWS Account |&amp;nbsp;&lt;span style=&quot;background-color: initial;&quot;&gt;openshift&lt;/span&gt;" style="points=[[0,0],[0.25,0],[0.5,0],[0.75,0],[1,0],[1,0.25],[1,0.5],[1,0.75],[1,1],[0.75,1],[0.5,1],[0.25,1],[0,1],[0,0.75],[0,0.5],[0,0.25]];outlineConnect=0;gradientColor=none;html=1;whiteSpace=wrap;fontSize=12;fontStyle=0;container=1;pointerEvents=0;collapsible=0;recursiveResize=0;shape=mxgraph.aws4.group;grIcon=mxgraph.aws4.group_account;strokeColor=#CD2264;fillColor=none;verticalAlign=top;align=left;spacingLeft=30;fontColor=#CD2264;dashed=0;" vertex="1" parent="1">
          <mxGeometry x="834" y="-478" width="280" height="211.5" as="geometry" />
        </mxCell>
        <mxCell id="wMCjaDI-WwXmUcqfbWN0-13" value="HomeLab&lt;br&gt;10.10.12.0/22" style="points=[[0,0],[0.25,0],[0.5,0],[0.75,0],[1,0],[1,0.25],[1,0.5],[1,0.75],[1,1],[0.75,1],[0.5,1],[0.25,1],[0,1],[0,0.75],[0,0.5],[0,0.25]];outlineConnect=0;gradientColor=none;html=1;whiteSpace=wrap;fontSize=12;fontStyle=0;container=1;pointerEvents=0;collapsible=0;recursiveResize=0;shape=mxgraph.aws4.group;grIcon=mxgraph.aws4.group_corporate_data_center;strokeColor=#7D8998;fillColor=none;verticalAlign=top;align=left;spacingLeft=30;fontColor=#5A6C86;dashed=0;" vertex="1" parent="1">
          <mxGeometry x="40" y="-445" width="251" height="300" as="geometry" />
        </mxCell>
        <mxCell id="wMCjaDI-WwXmUcqfbWN0-8" value="EKS Anywhere Cluster" style="sketch=0;points=[[0,0,0],[0.25,0,0],[0.5,0,0],[0.75,0,0],[1,0,0],[0,1,0],[0.25,1,0],[0.5,1,0],[0.75,1,0],[1,1,0],[0,0.25,0],[0,0.5,0],[0,0.75,0],[1,0.25,0],[1,0.5,0],[1,0.75,0]];outlineConnect=0;fontColor=#232F3E;fillColor=#ED7100;strokeColor=#ffffff;dashed=0;verticalLabelPosition=bottom;verticalAlign=top;align=center;html=1;fontSize=12;fontStyle=0;aspect=fixed;shape=mxgraph.aws4.resourceIcon;resIcon=mxgraph.aws4.eks_anywhere;" vertex="1" parent="wMCjaDI-WwXmUcqfbWN0-13">
          <mxGeometry x="60" y="60" width="78" height="78" as="geometry" />
        </mxCell>
        <UserObject label="&lt;span style=&quot;color: rgb(0, 0, 0); font-family: Helvetica; font-size: 12px; font-style: normal; font-variant-ligatures: normal; font-variant-caps: normal; font-weight: 400; letter-spacing: normal; orphans: 2; text-align: center; text-indent: 0px; text-transform: none; widows: 2; word-spacing: 0px; -webkit-text-stroke-width: 0px; white-space: nowrap; background-color: rgb(251, 251, 251); text-decoration-thickness: initial; text-decoration-style: initial; text-decoration-color: initial; display: inline !important; float: none;&quot;&gt;eksa.kubernerdes.lab&lt;/span&gt;&lt;br style=&quot;forced-color-adjust: none; padding: 0px; margin: 0px; color: rgb(0, 0, 0); font-family: Helvetica; font-size: 12px; font-style: normal; font-variant-ligatures: normal; font-variant-caps: normal; font-weight: 400; letter-spacing: normal; orphans: 2; text-align: center; text-indent: 0px; text-transform: none; widows: 2; word-spacing: 0px; -webkit-text-stroke-width: 0px; white-space: nowrap; background-color: rgb(251, 251, 251); text-decoration-thickness: initial; text-decoration-style: initial; text-decoration-color: initial;&quot;&gt;&lt;span style=&quot;color: rgb(0, 0, 0); font-family: Helvetica; font-size: 12px; font-style: normal; font-variant-ligatures: normal; font-variant-caps: normal; font-weight: 400; letter-spacing: normal; orphans: 2; text-align: center; text-indent: 0px; text-transform: none; widows: 2; word-spacing: 0px; -webkit-text-stroke-width: 0px; white-space: nowrap; background-color: rgb(251, 251, 251); text-decoration-thickness: initial; text-decoration-style: initial; text-decoration-color: initial; display: inline !important; float: none;&quot;&gt;k3s.kubernerdes.lab&lt;/span&gt;" link="&lt;meta charset=&quot;utf-8&quot;&gt;&lt;span style=&quot;color: rgb(0, 0, 0); font-family: Helvetica; font-size: 12px; font-style: normal; font-variant-ligatures: normal; font-variant-caps: normal; font-weight: 400; letter-spacing: normal; orphans: 2; text-align: center; text-indent: 0px; text-transform: none; widows: 2; word-spacing: 0px; -webkit-text-stroke-width: 0px; white-space: nowrap; background-color: rgb(251, 251, 251); text-decoration-thickness: initial; text-decoration-style: initial; text-decoration-color: initial; display: inline !important; float: none;&quot;&gt;HomeLab&lt;/span&gt;&lt;br style=&quot;forced-color-adjust: none; padding: 0px; margin: 0px; color: rgb(0, 0, 0); font-family: Helvetica; font-size: 12px; font-style: normal; font-variant-ligatures: normal; font-variant-caps: normal; font-weight: 400; letter-spacing: normal; orphans: 2; text-align: center; text-indent: 0px; text-transform: none; widows: 2; word-spacing: 0px; -webkit-text-stroke-width: 0px; white-space: nowrap; background-color: rgb(251, 251, 251); text-decoration-thickness: initial; text-decoration-style: initial; text-decoration-color: initial;&quot;&gt;&lt;span style=&quot;color: rgb(0, 0, 0); font-family: Helvetica; font-size: 12px; font-style: normal; font-variant-ligatures: normal; font-variant-caps: normal; font-weight: 400; letter-spacing: normal; orphans: 2; text-align: center; text-indent: 0px; text-transform: none; widows: 2; word-spacing: 0px; -webkit-text-stroke-width: 0px; white-space: nowrap; background-color: rgb(251, 251, 251); text-decoration-thickness: initial; text-decoration-style: initial; text-decoration-color: initial; display: inline !important; float: none;&quot;&gt;10.10.12.0/22&lt;/span&gt;&lt;br style=&quot;forced-color-adjust: none; padding: 0px; margin: 0px; color: rgb(0, 0, 0); font-family: Helvetica; font-size: 12px; font-style: normal; font-variant-ligatures: normal; font-variant-caps: normal; font-weight: 400; letter-spacing: normal; orphans: 2; text-align: center; text-indent: 0px; text-transform: none; widows: 2; word-spacing: 0px; -webkit-text-stroke-width: 0px; white-space: nowrap; background-color: rgb(251, 251, 251); text-decoration-thickness: initial; text-decoration-style: initial; text-decoration-color: initial;&quot;&gt;&lt;span style=&quot;color: rgb(0, 0, 0); font-family: Helvetica; font-size: 12px; font-style: normal; font-variant-ligatures: normal; font-variant-caps: normal; font-weight: 400; letter-spacing: normal; orphans: 2; text-align: center; text-indent: 0px; text-transform: none; widows: 2; word-spacing: 0px; -webkit-text-stroke-width: 0px; white-space: nowrap; background-color: rgb(251, 251, 251); text-decoration-thickness: initial; text-decoration-style: initial; text-decoration-color: initial; display: inline !important; float: none;&quot;&gt;eksa.kubernerdes.lab&lt;/span&gt;&lt;br style=&quot;forced-color-adjust: none; padding: 0px; margin: 0px; color: rgb(0, 0, 0); font-family: Helvetica; font-size: 12px; font-style: normal; font-variant-ligatures: normal; font-variant-caps: normal; font-weight: 400; letter-spacing: normal; orphans: 2; text-align: center; text-indent: 0px; text-transform: none; widows: 2; word-spacing: 0px; -webkit-text-stroke-width: 0px; white-space: nowrap; background-color: rgb(251, 251, 251); text-decoration-thickness: initial; text-decoration-style: initial; text-decoration-color: initial;&quot;&gt;&lt;span style=&quot;color: rgb(0, 0, 0); font-family: Helvetica; font-size: 12px; font-style: normal; font-variant-ligatures: normal; font-variant-caps: normal; font-weight: 400; letter-spacing: normal; orphans: 2; text-align: center; text-indent: 0px; text-transform: none; widows: 2; word-spacing: 0px; -webkit-text-stroke-width: 0px; white-space: nowrap; background-color: rgb(251, 251, 251); text-decoration-thickness: initial; text-decoration-style: initial; text-decoration-color: initial; display: inline !important; float: none;&quot;&gt;k3s.kubernerdes.lab&lt;/span&gt;" id="wMCjaDI-WwXmUcqfbWN0-12">
          <mxCell style="text;html=1;align=center;verticalAlign=middle;whiteSpace=wrap;rounded=0;" vertex="1" parent="wMCjaDI-WwXmUcqfbWN0-13">
            <mxGeometry x="40" y="260" width="60" height="30" as="geometry" />
          </mxCell>
        </UserObject>
        <mxCell id="wMCjaDI-WwXmUcqfbWN0-22" value="EKS Hybrid Node" style="sketch=0;outlineConnect=0;fontColor=#232F3E;gradientColor=none;fillColor=#ED7100;strokeColor=none;dashed=0;verticalLabelPosition=bottom;verticalAlign=top;align=center;html=1;fontSize=12;fontStyle=0;aspect=fixed;pointerEvents=1;shape=mxgraph.aws4.eks_on_outposts;" vertex="1" parent="wMCjaDI-WwXmUcqfbWN0-13">
          <mxGeometry x="75" y="173" width="48" height="48" as="geometry" />
        </mxCell>
        <mxCell id="UEzPUAAOIrF-is8g5C7q-175" value="AWS Cloud" style="points=[[0,0],[0.25,0],[0.5,0],[0.75,0],[1,0],[1,0.25],[1,0.5],[1,0.75],[1,1],[0.75,1],[0.5,1],[0.25,1],[0,1],[0,0.75],[0,0.5],[0,0.25]];outlineConnect=0;gradientColor=none;html=1;whiteSpace=wrap;fontSize=12;fontStyle=0;shape=mxgraph.aws4.group;grIcon=mxgraph.aws4.group_aws_cloud_alt;strokeColor=#232F3E;fillColor=none;verticalAlign=top;align=left;spacingLeft=30;fontColor=#232F3E;dashed=0;labelBackgroundColor=#ffffff;container=0;pointerEvents=0;collapsible=0;recursiveResize=0;" parent="1" vertex="1">
          <mxGeometry x="459" y="-781" width="675" height="768" as="geometry" />
        </mxCell>
        <mxCell id="wMCjaDI-WwXmUcqfbWN0-24" style="edgeStyle=orthogonalEdgeStyle;rounded=0;orthogonalLoop=1;jettySize=auto;html=1;exitX=1;exitY=0.5;exitDx=0;exitDy=0;exitPerimeter=0;entryX=0;entryY=0.5;entryDx=0;entryDy=0;entryPerimeter=0;endArrow=none;endFill=0;" edge="1" parent="1" source="wMCjaDI-WwXmUcqfbWN0-25" target="wMCjaDI-WwXmUcqfbWN0-1">
          <mxGeometry relative="1" as="geometry" />
        </mxCell>
        <mxCell id="wMCjaDI-WwXmUcqfbWN0-29" value="" style="edgeStyle=orthogonalEdgeStyle;rounded=0;orthogonalLoop=1;jettySize=auto;html=1;exitX=1;exitY=0.5;exitDx=0;exitDy=0;exitPerimeter=0;entryX=0;entryY=0.5;entryDx=0;entryDy=0;entryPerimeter=0;endArrow=none;endFill=0;" edge="1" parent="1" source="wMCjaDI-WwXmUcqfbWN0-23" target="wMCjaDI-WwXmUcqfbWN0-25">
          <mxGeometry relative="1" as="geometry">
            <mxPoint x="408" y="-326" as="sourcePoint" />
            <mxPoint x="930" y="-319" as="targetPoint" />
          </mxGeometry>
        </mxCell>
        <mxCell id="wMCjaDI-WwXmUcqfbWN0-25" value="" style="outlineConnect=0;dashed=0;verticalLabelPosition=bottom;verticalAlign=top;align=center;html=1;shape=mxgraph.aws3.vpn_connection;fillColor=#F58534;gradientColor=none;" vertex="1" parent="1">
          <mxGeometry x="375" y="-335" width="58.5" height="48" as="geometry" />
        </mxCell>
        <mxCell id="wMCjaDI-WwXmUcqfbWN0-34" value="clouditoutloud.com&lt;div&gt;eks.&lt;span style=&quot;background-color: initial;&quot;&gt;clouditoutloud.com&lt;/span&gt;&lt;/div&gt;&lt;div&gt;&lt;span style=&quot;background-color: initial;&quot;&gt;ocp4.&lt;/span&gt;&lt;span style=&quot;background-color: initial;&quot;&gt;clouditoutloud.com&lt;/span&gt;&lt;/div&gt;&lt;div&gt;&lt;span style=&quot;background-color: initial;&quot;&gt;rancher.&lt;/span&gt;&lt;span style=&quot;background-color: initial;&quot;&gt;clouditoutloud.com&lt;/span&gt;&lt;/div&gt;&lt;div&gt;&lt;span style=&quot;background-color: initial;&quot;&gt;&lt;br&gt;&lt;/span&gt;&lt;/div&gt;" style="sketch=0;points=[[0,0,0],[0.25,0,0],[0.5,0,0],[0.75,0,0],[1,0,0],[0,1,0],[0.25,1,0],[0.5,1,0],[0.75,1,0],[1,1,0],[0,0.25,0],[0,0.5,0],[0,0.75,0],[1,0.25,0],[1,0.5,0],[1,0.75,0]];outlineConnect=0;fontColor=#232F3E;fillColor=#8C4FFF;strokeColor=#ffffff;dashed=0;verticalLabelPosition=bottom;verticalAlign=top;align=center;html=1;fontSize=12;fontStyle=0;aspect=fixed;shape=mxgraph.aws4.resourceIcon;resIcon=mxgraph.aws4.route_53;" vertex="1" parent="1">
          <mxGeometry x="92" y="-712" width="78" height="78" as="geometry" />
        </mxCell>
        <mxCell id="wMCjaDI-WwXmUcqfbWN0-19" value="I will use CIDR from 172.16.0.0/12 to create my /16 VPC CIDR" style="text;html=1;align=center;verticalAlign=middle;whiteSpace=wrap;rounded=0;" vertex="1" parent="1">
          <mxGeometry x="474" y="-66" width="150" height="43.5" as="geometry" />
        </mxCell>
        <mxCell id="wMCjaDI-WwXmUcqfbWN0-7" value="AWS Account |&amp;nbsp;&lt;span style=&quot;background-color: initial;&quot;&gt;rancher&lt;/span&gt;" style="points=[[0,0],[0.25,0],[0.5,0],[0.75,0],[1,0],[1,0.25],[1,0.5],[1,0.75],[1,1],[0.75,1],[0.5,1],[0.25,1],[0,1],[0,0.75],[0,0.5],[0,0.25]];outlineConnect=0;gradientColor=none;html=1;whiteSpace=wrap;fontSize=12;fontStyle=0;container=1;pointerEvents=0;collapsible=0;recursiveResize=0;shape=mxgraph.aws4.group;grIcon=mxgraph.aws4.group_account;strokeColor=#CD2264;fillColor=none;verticalAlign=top;align=left;spacingLeft=30;fontColor=#CD2264;dashed=0;" vertex="1" parent="1">
          <mxGeometry x="834" y="-247" width="280" height="214" as="geometry" />
        </mxCell>
        <mxCell id="wMCjaDI-WwXmUcqfbWN0-10" value="" style="image;aspect=fixed;html=1;points=[];align=center;fontSize=12;image=img/lib/azure2/containers/Azure_Red_Hat_OpenShift.svg;" vertex="1" parent="1">
          <mxGeometry x="1008" y="-383" width="68" height="68" as="geometry" />
        </mxCell>
        <mxCell id="wMCjaDI-WwXmUcqfbWN0-17" value="VPC&lt;br&gt;172.18.0.0/16" style="sketch=0;outlineConnect=0;gradientColor=none;html=1;whiteSpace=wrap;fontSize=12;fontStyle=1;shape=mxgraph.aws4.group;grIcon=mxgraph.aws4.group_vpc;strokeColor=#879196;fillColor=none;verticalAlign=top;align=left;spacingLeft=30;fontColor=#879196;dashed=0;" vertex="1" parent="1">
          <mxGeometry x="888" y="-425.25" width="200" height="127.25" as="geometry" />
        </mxCell>
        <mxCell id="wMCjaDI-WwXmUcqfbWN0-26" value="" style="sketch=0;outlineConnect=0;fontColor=#232F3E;gradientColor=none;fillColor=#8C4FFF;strokeColor=none;dashed=0;verticalLabelPosition=bottom;verticalAlign=top;align=center;html=1;fontSize=12;fontStyle=0;aspect=fixed;pointerEvents=1;shape=mxgraph.aws4.transit_gateway_attachment;" vertex="1" parent="1">
          <mxGeometry x="858" y="-383" width="59.5" height="59.5" as="geometry" />
        </mxCell>
        <mxCell id="wMCjaDI-WwXmUcqfbWN0-16" value="VPC&lt;br&gt;172.17.0.0/16" style="sketch=0;outlineConnect=0;gradientColor=none;html=1;whiteSpace=wrap;fontSize=12;fontStyle=0;shape=mxgraph.aws4.group;grIcon=mxgraph.aws4.group_vpc;strokeColor=#879196;fillColor=none;verticalAlign=top;align=left;spacingLeft=30;fontColor=#879196;dashed=0;" vertex="1" parent="1">
          <mxGeometry x="888" y="-643" width="200" height="130" as="geometry" />
        </mxCell>
        <mxCell id="wMCjaDI-WwXmUcqfbWN0-20" value="" style="sketch=0;outlineConnect=0;fontColor=#232F3E;gradientColor=none;fillColor=#8C4FFF;strokeColor=none;dashed=0;verticalLabelPosition=bottom;verticalAlign=top;align=center;html=1;fontSize=12;fontStyle=0;aspect=fixed;pointerEvents=1;shape=mxgraph.aws4.transit_gateway_attachment;" vertex="1" parent="1">
          <mxGeometry x="858" y="-602.5" width="59.5" height="59.5" as="geometry" />
        </mxCell>
        <mxCell id="wMCjaDI-WwXmUcqfbWN0-11" value="" style="shape=image;verticalLabelPosition=bottom;labelBackgroundColor=default;verticalAlign=top;aspect=fixed;imageAspect=0;image=data:image/png,iVBORw0KGgoAAAANSUhEUgAAAKwAAACmCAYAAABHqmS+AAAMTWlDQ1BJQ0MgUHJvZmlsZQAASImVVwdYU1cbPndkkhAgEAEZYS9BREYAGSGsALKHICohCRBGjAlBxY0WFaxbRHCiVRCLVisgxYVbKYrbOooDhUot1uJW/hMCaOk/nv97nnPve9/znfd833fPHQcARodAJstFtQDIk+bLY0MC2JOSU9ikLkADCNAEVOAiECpk3OjoCABt6Px3e30T+kK75qjS+mf/fzVtkVghBACJhjhdpBDmQfwjAHizUCbPB4Aog7zFzHyZCq+HWFcOA4S4WoUz1bhZhdPV+MqAT3wsD+InAJBpAoE8EwDNXsizC4SZUIcBswXOUpFECrE/xL55edNFEC+E2Bb6wDkZKn1O+lc6mX/TTB/WFAgyh7E6lwEjB0oUslzB7P+zHP/b8nKVQ3PYwEbLkofGqnKGdXuSMz1chWkQv5WmR0ZBrAMAiktEA/4qzMpShiao/VFboYIHawZYEE9Q5MbxB/lYkSAwHGIjiDOkuZERgz5FGZJglQ+sH1ouyefHQ6wPcbVYERQ36HNCPj12aN6bGXIed5DvEsgHYlDpf1bmJHDV+phOlpg/qI85FWbFJ0FMhTiwQJIYCbEmxJGKnLjwQZ/Uwixe5JCPXBmrysUSYrlYGhKg1sfKMuTBsYP+e/MUQ7ljJ7Ik/MhBfDU/Kz5UXSvsiVAwED/MBesVS7kJQzpixaSIoVxE4sAgde44WSxNiFPzuL4sPyBWPRa3l+VGD/rjAeLcEBVvDnG8oiBuaGxBPlycan28WJYfHa+OE6/IFoRFq+PBD4AIwAOBgA2UsKWD6SAbSNp6GnrglbonGAiAHGQCMXAcZIZGJA30SOExDhSC3yESA8XwuICBXjEogPynEayKkwxz6qMjyBjsU6nkgKcQ54FwkAuvlQNK0uEIEsETyEj+EZEANiHMIRc2Vf+/54fYLwwXMhGDjHJoRjZjyJMYRAwkhhKDiXa4Ie6Le+MR8OgPmwvOwT2H8vjiT3hKaCc8ItwgdBDuTJMUyUdEORF0QP3gwfqkf10f3BpquuEBuA9Uh8o4CzcEjrgrnIeL+8GZ3SDLG4xbVRX2CO2/ZfDVHRr0ozhTUMooij/FduRITXtNt2EVVa2/ro861vThevOGe0bOz/uq+iJ4Dh/piS3DDmHnsJPYBawZawBs7DjWiLViR1V4eMU9GVhxQ7PFDsSTA3VGrpkvd1ZVSYVzrXO380d1X754Vr7qYeRNl82WSzKz8tlc+MUQs/lSodMYtouziysAqu+P+vX2Kmbgu4KwWr9wi38FwOd4f3//T1+4sOMA/OABXwlHvnC2HPhp0QDg/BGhUl6g5nDVgQDfHAz49BkAE2ABbGE+LsAdeAN/EATCQBSIB8lgKow+C65zOZgJ5oJFoBiUgtVgA6gA28BOUA2+BwdBA2gGJ8FZcAlcATfAXbh6OsFz0Ategw8IgpAQOsJEDBBTxApxQFwQDuKLBCERSCySjKQhmYgUUSJzkcVIKbIWqUB2IDXID8gR5CRyAWlH7iAPkW7kT+Q9iqE0VBc1Rq3RsSgH5aLhaDw6Bc1EZ6CF6BJ0JVqOVqH70Hr0JHoJvYF2oM/RPgxgGhgLM8McMQ7Gw6KwFCwDk2PzsRKsDKvC6rAmeJ+vYR1YD/YOJ+JMnI07whUciifgQnwGPh9fgVfg1Xg9fhq/hj/Ee/HPBDrBiOBA8CLwCZMImYSZhGJCGWE34TDhDHyWOgmviUQii2hD9IDPYjIxmziHuIK4hbifeILYTnxM7CORSAYkB5IPKYokIOWTikmbSPtIx0lXSZ2kt2QNsinZhRxMTiFLyUXkMvJe8jHyVfIz8geKFsWK4kWJoogosymrKLsoTZTLlE7KB6o21YbqQ42nZlMXUcupddQz1HvUVxoaGuYanhoxGhKNhRrlGgc0zms81HhH06HZ03i0VJqStpK2h3aCdof2ik6nW9P96Sn0fPpKeg39FP0B/a0mU9NJk68p0lygWalZr3lV8wWDwrBicBlTGYWMMsYhxmVGjxZFy1qLpyXQmq9VqXVE65ZWnzZTe5x2lHae9grtvdoXtLt0SDrWOkE6Ip0lOjt1Tuk8ZmJMCyaPKWQuZu5inmF26hJ1bXT5utm6pbrf67bp9urp6LnqJerN0qvUO6rXwcJY1iw+K5e1inWQdZP1fpTxKO4o8ajlo+pGXR31Rn+0vr++WL9Ef7/+Df33BmyDIIMcgzUGDQb3DXFDe8MYw5mGWw3PGPaM1h3tPVo4umT0wdG/GKFG9kaxRnOMdhq1GvUZmxiHGMuMNxmfMu4xYZn4m2SbrDc5ZtJtyjT1NZWYrjc9bvobW4/NZeeyy9mn2b1mRmahZkqzHWZtZh/MbcwTzIvM95vft6BacCwyLNZbtFj0WppaTrSca1lr+YsVxYpjlWW10eqc1RtrG+sk66XWDdZdNvo2fJtCm1qbe7Z0Wz/bGbZVttftiHYcuxy7LXZX7FF7N/ss+0r7yw6og7uDxGGLQ/sYwhjPMdIxVWNuOdIcuY4FjrWOD51YThFORU4NTi/GWo5NGbtm7Lmxn53dnHOddznfHaczLmxc0bimcX+62LsIXSpdro+njw8ev2B84/iXrg6uYtetrrfdmG4T3Za6tbh9cvdwl7vXuXd7WHqkeWz2uMXR5URzVnDOexI8AzwXeDZ7vvNy98r3Ouj1h7ejd473Xu+uCTYTxBN2TXjsY+4j8Nnh0+HL9k3z3e7b4WfmJ/Cr8nvkb+Ev8t/t/4xrx83m7uO+CHAOkAccDnjD8+LN450IxAJDAksC24J0ghKCKoIeBJsHZwbXBveGuIXMCTkRSggND10TeotvzBfya/i9YR5h88JOh9PC48Irwh9F2EfII5omohPDJq6beC/SKlIa2RAFovhR66LuR9tEz4j+KYYYEx1TGfM0dlzs3Nhzccy4aXF7417HB8Svir+bYJugTGhJZCSmJtYkvkkKTFqb1DFp7KR5ky4lGyZLkhtTSCmJKbtT+iYHTd4wuTPVLbU49eYUmymzplyYajg1d+rRaYxpgmmH0ghpSWl70z4KogRVgr50fvrm9F4hT7hR+FzkL1ov6hb7iNeKn2X4ZKzN6Mr0yVyX2Z3ll1WW1SPhSSokL7NDs7dlv8mJytmT05+blLs/j5yXlndEqiPNkZ6ebjJ91vR2mYOsWNYxw2vGhhm98nD5bgWimKJozNeFP/qtSlvlN8qHBb4FlQVvZybOPDRLe5Z0Vuts+9nLZz8rDC78bg4+RzinZa7Z3EVzH87jztsxH5mfPr9lgcWCJQs6F4YsrF5EXZSz6Oci56K1RX8tTlrctMR4ycIlj78J+aa2WLNYXnxrqffSbcvwZZJlbcvHL9+0/HOJqORiqXNpWenHFcIVF78d9235t/0rM1a2rXJftXU1cbV09c01fmuq12qvLVz7eN3EdfXr2etL1v+1YdqGC2WuZds2UjcqN3aUR5Q3brLctHrTx4qsihuVAZX7NxttXr75zRbRlqtb/bfWbTPeVrrt/XbJ9ts7QnbUV1lXle0k7izY+XRX4q5z33G+q9ltuLt096c90j0d1bHVp2s8amr2Gu1dVYvWKmu796Xuu/J94PeNdY51O/az9pceAAeUB377Ie2HmwfDD7Yc4hyq+9Hqx82HmYdL6pH62fW9DVkNHY3Jje1Hwo60NHk3Hf7J6ac9zWbNlUf1jq46Rj225Fj/8cLjfSdkJ3pOZp583DKt5e6pSaeun4453XYm/Mz5s8FnT53jnjt+3ud88wWvC0cuci42XHK/VN/q1nr4Z7efD7e5t9Vf9rjceMXzSlP7hPZjV/2unrwWeO3sdf71Szcib7TfTLh5+1bqrY7bottdd3LvvPyl4JcPdxfeI9wrua91v+yB0YOqX+1+3d/h3nH0YeDD1kdxj+4+Fj5+/kTx5GPnkqf0p2XPTJ/VdLl0NXcHd1/5bfJvnc9lzz/0FP+u/fvmF7YvfvzD/4/W3km9nS/lL/v/XPHK4NWev1z/aumL7nvwOu/1hzclbw3eVr/jvDv3Pun9sw8zP5I+ln+y+9T0Ofzzvf68/n6ZQC4Y+BXAgGprkwHAn3sAoCcDwIT7Rupk9f5wwBD1nnYAgf+E1XvIAXMHoA7+08f0wL+bWwAc2AWANdRnpAIQTQcg3hOg48cPt6G93MC+U2VEuDfYnvApPS8d/BtT70m/invkGahUXcHI878A7bCDDkBx7OkAAACKZVhJZk1NACoAAAAIAAQBGgAFAAAAAQAAAD4BGwAFAAAAAQAAAEYBKAADAAAAAQACAACHaQAEAAAAAQAAAE4AAAAAAAAAkAAAAAEAAACQAAAAAQADkoYABwAAABIAAAB4oAIABAAAAAEAAACsoAMABAAAAAEAAACmAAAAAEFTQ0lJAAAAU2NyZWVuc2hvdPa/xpoAAAAJcEhZcwAAFiUAABYlAUlSJPAAAAHWaVRYdFhNTDpjb20uYWRvYmUueG1wAAAAAAA8eDp4bXBtZXRhIHhtbG5zOng9ImFkb2JlOm5zOm1ldGEvIiB4OnhtcHRrPSJYTVAgQ29yZSA2LjAuMCI+CiAgIDxyZGY6UkRGIHhtbG5zOnJkZj0iaHR0cDovL3d3dy53My5vcmcvMTk5OS8wMi8yMi1yZGYtc3ludGF4LW5zIyI+CiAgICAgIDxyZGY6RGVzY3JpcHRpb24gcmRmOmFib3V0PSIiCiAgICAgICAgICAgIHhtbG5zOmV4aWY9Imh0dHA6Ly9ucy5hZG9iZS5jb20vZXhpZi8xLjAvIj4KICAgICAgICAgPGV4aWY6UGl4ZWxZRGltZW5zaW9uPjE2NjwvZXhpZjpQaXhlbFlEaW1lbnNpb24+CiAgICAgICAgIDxleGlmOlBpeGVsWERpbWVuc2lvbj4xNzI8L2V4aWY6UGl4ZWxYRGltZW5zaW9uPgogICAgICAgICA8ZXhpZjpVc2VyQ29tbWVudD5TY3JlZW5zaG90PC9leGlmOlVzZXJDb21tZW50PgogICAgICA8L3JkZjpEZXNjcmlwdGlvbj4KICAgPC9yZGY6UkRGPgo8L3g6eG1wbWV0YT4KWsfFtgAAABxpRE9UAAAAAgAAAAAAAABTAAAAKAAAAFMAAABTAAASwYJ7WkUAABKNSURBVHgB7F15kFxHef/NvZd2V3uvVsdqddkgy6wsS7ZM8AGh7EqAlDEEHBMck4CLcqgiOCF2/uGoCpVQIak4CRBiolCBAhLAKcDFkRgELlmXjeVbsteSVtJq7/uYe/L7+s3Tzmree/Nmd2Y8s+qu2n0z/fr16/59v/e9r7/+usfzsfs/noJOGoEKQcBT2YT1VAjMldDMytBbZUhYk4SVAWAlULEwbSwPuZQBYZ2BSHj8SMoffEh5vUiBfx6PcYRxbUqOKk++y58z2eV6o5y1KFV9lqfkvnJtcZJqVkrabt1+ubt98sCTStifzjij6uF9jPrSR/UdRDeh6vGmkvCyPl8qlnFlxkfBO8lriwdHxs0WP74xhJVeKsEsNkRgi/jqsBCoR9Rbg6ivBjFfCHEEDcJ6SFiP1yCuQM06PPyuxCv/FHDyzwWCvM4eaF5ve1Lu6fIei13L41OKsKgeWV/jcM44lbS+LiuX5Xgb1ZV0nQpJfhaEhfhCVm8qDr/8JcMIJuYRTC4glJhFVXyaRM58OAQz3kTVlXWzgmaUlrCCULpTQtC4J0CCrsV0sB1zPMa9ISSYlxRC+YLwUKMKsqmkAJw0L1V5S1AQGeeTPPlekFH5Ci7NqMX+owh+uSmV58VZxY0M45mUh5r4K5klkYxF4fWI1hUCR1Abn0RdZJTHcQRIZE8JyCqwlJawvKEQcj7YiKlAJ4napjSpaoi87qXTJKaRBDxhRxaq6fP6UBoEMmQg8qGc5C1jvgmEvGuiI2gIX0RtjORNRdLNMuUm1xculYywCW8As4EWTFStx2SgAx5/EKlE3CCo2TfVryVfCtdTXVMBEUiTWBGYZpLXT1nGsCY2gsbwAOpJYNG6i8qmcKQtOmHF7pwMdWCkegtf/0181fOVn4gCNNgNI6qAOOqq3iAEhJBixvmVAgpGp9ASPo3m8DllQhhmRWFIW1TCzvsbMFh7FWZD7RwkcdAktqh6zb9BuOrbFh8BviA9lDW1EmqiY2hfOEWTYZSGXRkTlqY5xqo3YbhmO+L+GhI1c0RZfMz0HcoBAQ6rvSQuTYW2hT60zffZu8jyaG7hNGzaAyDuqIHaqzFZtcF4Eyiyars0D5msoqJi9hnehtrwILrmXkJ1fIr9Ez4sT+MWjrBswry/EefXXIOFYAtHkdSqy2vTKhKY7oqJgNi3Adq2G2afU14FMz/fY8EIK/bq2YbrEQ00qBFjvg3R5Vc3AuIG8wUC8MXmsHH6aWXXLmcwtkLCGqpdyHqufjcioSblYFYNWd34694tCwHatdS0wfgs1k//xiBtnvWsgLCLZD1TvwfxUKMma57gX5nFZTDmhy8umvYZ1MdGCYN7m3YFhAUinPM/03AdwqFWpOIMklBzelemGHSv80HA0LSB2DS6J4+jJuF+ILZsworr6uya3Ziu2UC3FWes9BRqPhLTZWnTymxnzcJF9EwdZSyecCh3WhZheSsMV23GYMOu9GRA7hvpEhqBbAQM86Bl9iTWzb9MVtGtlMOztCzCznGQ9XrDjUj4qngDM1gluzk6RyOQCwFlRdJXv3n6qIpByGXP5k1YRkvidMM+zFZ1pGewxGDWSSOwfAQkjLQqMo4tk0/B75GAKHs1mwdhjZHceKiLLqxeam6JVdVJI1AIBGgaUNV2zLzI2IM+VmjvNciDsEDME0Rf4w2IBJvT2rUQjdV1aARIUcYdiNdgy+QhhFRoojUqeRF2PNiJfs5m6aQRKAYCMqnQOfE02iJnbat3Tdg4FwKerevFbO0mTr0ynlUnjUCBEZAJherwELqnjyN4aeXC0pvkJmw6Cmsy0Ir+pv1ISuC1ThqBIiEgpkHXxBG0RAd4h2xbNidh1YCNpD1XuxMTa7antatUpJNGoMAIyGQCzYI18/3onvkNh/WiHJcqyJyElSZFEMCrTbcgzljXyyuQ8zppBAqJgJczp1vHf4ma1HxWtTkIa6jkcX8b+hv3GRpaqemsenSGRqCgCHQxmqs1ci6rzhyENcr3116D8ZoeflmqnrNq0xkagZUioKxNL82C8+iZOab8s5lV5iRsLOlBX/NbM3yv2n7NBFB/LjQCEl9g+GR7xn6NKs/SrZJyEnYWtThD70AiIIsJJW5AE7bQItL1ZSPgS0WxcfIIGuITac4Zb3dbwsqSBpkuGwuu4zqtt6hl2jreNRtYnVMEBNKxBJ2zz6M9fEbtMmPsaUZ1mWt/2IFQD4brdxahVbpKjYA9AjKJsHb6JWxceIWFjMG/lM5J2NPVb8Z0ww76X90F2No3QZ/RCLhFgKFVgSrUzvShh8toZO7KTI6ETVI199XvxcKabq7XCvOajCvNGvRRI1BwBAzChmbPY8vUYYYcLnqnHAkbS3kZnXUjojWdSMZ1/EDB5aIrtEVA9mALhkfQM3kYISxyz5GwMsP1uhC2ihtjaJPAFlx9ovAISFC3PzaDnomnUJ0x4+VI2AVPlSJsnPu56v2xCi8UXaMDAtziyJdYIGEPoTY5c6mgI2HnvbUk7H5u6FbLSS69dusSavpD0REQDeuJR9A9/iTqUy4JO+Op46TBTUj6q9OTBkVvp76BRsBAQDaRS8awcfRXWAshrOHactSwU5zlOtvyNiS9QWrYxZFaITCV6jLdFYWoM+86VovTo7CiyRvGosiS5PDwrb5++CCaPdNskwvCTqTq0N/6Nv7cUMCRsDIrlozJHrDuGSCd9Pq98PrcX5M3klYXyFPCm8tP9ph/VsUqJk8E6/UYOCoNQGBLSOBkgrKPcy11XmIUt5WP1zhdZMipa/QgWrG4M4yjhh0nYc+13pwmrIUNyzqT8RQ6Outw196N3AXeHVJqJzvaKD9+dgCnz0yoxhdag2cRTsBh+xJRPlj8HKrxo2VtNdbWhlATZLBFoHJWAYuYJaxjgX2ZXohidCqCmZmw6puP/fD4uJGwS1lk4eQ2gxiKktra04Tbd3UiwQY5E3CxYj5i+O7hsxgdmWNbRS6L5y59UmT2oIsathWL8QSOhB1NrMGFDhKW67ksB11CWDa6d2cHvnr37kv3cvvhrx57ET996gz8Vc4a3G19duVEdsl4AsEqP7ZvasI7d7Zj1/pGNNcGEPL74BcNxb9KStKnBN8S0UQC85EkTo/N4uDJERx+dRRjQgT2R/6Klkio+EIMv/tbm/GZd70p79vc943jeOGVESorKgpbwnrROfRLtHtcEnYsWYfzHbeyPqnUotY0Ya99Uzu+ds91rhttauKHf/AC/vdIf1EJm+ADFeDrZ981nbh73wb0kqhCUDNZ9Mo8VRHHxZ7woaSMJudj+MGJAXyPGmxkeF6ZXfKTA5akWEkP04S946ZufPbdb1Y38Cqt6K7SDx84jpdPORFWXoQ+dAy6IqzAkMJosh7n22/mlRVIWHZBXv9tbXW495Ye3NW73jDbyVBar+r1lSlsdzCXZynzoRNTyyTNyeFZfPVXfTh0YpC6RtZK2chwuV0qCWED6BANizG20uCkjUlgnBxJNeBCGwmbLpzVNxYTk6DsNGy6Xdfv7MTDv3MVuhqqVdNFsNKz1Z7MfiZIVNG2//z4K5ibi1Hbsvcmu1cKQrEJy/Z5ubth28Un0IFxfhPJ8cGzDi80TirCctAlgxTLnjK7HAkrZsBtezfgoduvQmN1QFkzebyt2NfVlZ7gq/cz33kWkUicL0tq2kKkkhH2FySsSw07nGrEgNKw0kOLR7PcCMv2JKJJbO9Zi3/8g91orqH/+ApPprb95vFzeOR/XircK6YsCcs5BoOw7DZfL1mpnAhLAFOJJNbSVfXle6/H5mYu6WGD2cQrPono5A3ztz87hf/6xWvwBcXrYyHPfJAqCWFDaZPApYYdSjVjUNxa/AVnKwUrbCgbk0DaQgf2J+/ciQ9ex13B00LKRwartaz54I7MRfBRjs4vDEzTPlyhr7bkhDWk42jDDkEIewtdsFy5aPVAlgthCZ54BHZsbcZXPnQdatUsymql3/L6pTwFxOmx5wbw198+odxdy6spfVU5EnaQhB3uvJWaazGAdkkny4SwIowUZ9z+8gO7cOe1XdSuhttqSVv1F4XA0GwEH/m3Ixim20tp2eXiUgrCBmgSDIiXQEwCIzlqWEXYdbfxtR8xyy89lglhk7Rdm2i7PvrRG9BVz23sdXJE4LOPv4wf/foMf+htBR6D8iKs0d9KIayYA7s5k/XlD/aqOQ4+Rzo5IPDjl4bwhe8+C3r/DI+lQ1nbU5qwVkayLVxLTshg6/ffsQ2fum2r9gwsQWbpF3PwdXpsHvcfOIbJiYXlxxtowi6PsOINkICfB++6BnfuWueesGk3Qt/oHL7BefcpBnJUSgCMIOVl+2/a1op3882SGRuxlKLW3+KMrLrn0aN4/bREysmUrXU5x1xN2OWgRqwpuCBdNJ+7uxe3buNiSaLs1iQYnY/iQY6Yn395qPRxuY5syH0ylfIgyLDIT79vF97D8D4JfDHjCHJfDdz/rWfwzAvstyZsbrgKGa0lhK2iI/wL9/Ri/2b+WAhvn4uwZplj/RN44F+PqAvcxnLm7l1pSkjoYIyRWft3d+Hv33+tskXdENbs+yf/+zk8+fQFTiIs0x97JWrYh77/PJ44dl6FFwrxrBPz7U7xArmumnGuf3PPbuxjrKspEOu6jFy5FfHGk6+P4VNfP1aRhJUOJBgbsGdXB/6Jg02GbbsaQJn4PEjsDx47l3vWS4CySPKAx2hG3X7jRnzuPbKVVX4aPmd4IWv0undrGS105yVIYufVbfg6HfZuk9Kw7PDnf/giHnuiDwGZ87cjLPFSKyitcdOELSJhHZcQCWFpUr3vndvx0B1XKTm40fAmRz7078dwksHmTiZJ0Qi7bUszvvmRvWZbch5NDffixRk88n+vYmI+At9lUUSiCQSAMF1WF4dnIGuHrJLWsMXRsIJrfUMV2tbWKPv4cn0hS2Ja6qrwibdvxY72NUrfUFyuUpwrJe7m5MUZWR7FdX12qfCE5Z3Eab9uXT0O3LdXhfLZ3dwuX2goGvfyvkq+jwi8NjyH+//jKGa4bslqyYcmbHEIK67C9966BZ/+7e2QuFor+YhCuTzfTs6Z+RLTcB9NsaHBGQ52S0xYeW3Ucm3Ul/5wD97S1eDKhsxsvN1nIayA0cf1SR87oAmbhRPJUkwbNpOwpiyy2pBnhlnP0bMT+Iv/fBoL4YSj3V0UDStt9vAJ/MTvSZTU+jy7YF/c7JwmrA1GFUhYsycHuI7vKz9kbG7G2jrzXOaxaISVqdG37lmPv3vvrlxtyGyP42dNWEd4qCUqT8NKj8T8+9PvnMBRLvFXLjWHbhaNsLI3QUNjCI/+yQ3YyCCUQiRN2BwoVihhZVr4j792mPsoRBztV+l90QgrxmYiksCHb9+Bj9+8RdmexHNFSRM2B3wVRlgqVqVd/4ErHr7981fhC8mEhXMfi0dY3lcGXzW1QfzLH12Pqzvo5mDeSjhrXq9tWBuhVhBhTVk+z5UOD9D/GuaEg5XH5/KeFpWwyqaKxrFzRxse4bx+Haf8zIZe3hA3381rNWFt0KoQwppynArH8QDjF06+NsZXvbvp4OISNo2rLAS8Y/8mPMwl1kEHH5uNGC5lmx3VhL0EydIPFUBYU4YR+nQ/z6Dxnx3ud5zZWtrBYtqwS+7EDddiSbyLey792Tu2K02bpK6Vue58ktlZTVgb1MqcsKbMZ/nW/eJPT+HxQ2fVrBab7TqVRMMarZEtGFPoZYzBn3OeeWsLd/BOJ5OI5ne7o1lOE9YGoTIkrCkzs8WnuG7siz95BSdk0zfZdSZPpVVCwkrbxE+YQHNrNT6wvxt3MNC4vS5k9uXSUTpplSRfJu301KwVOswrIWGdfrDVSmEOcuvPnzDW9ltPnsbE2ELaI2AnaZv+Mbu0hJV2EFSZ4hMPQmdHHfZyQLZ/SxN2cwdB2ULITbowEca9jx7G9GTYcmSpYwmKF0vwfga2PPj2bW7EhAmO/J85N4lDr43iKLdGGhyaVVF2KrhFfFrLSKUnrDSSj6D8nkeK+5jKl1DIj8amKrQ31qCtXjYT9iPAwZlVl2TmbppAHHxuEFHZF8ricdaELQ5hRcl0b2rEnu4mBr9Ysy3OAfY8bdSh6QiGJ+cxOR5GmN4AD38ITjZVlk0vLQVrXV1W7htD2KxmGBFe0hHjwZMPFoXMLLJUnlIrskoRTdjiEFawlUi8lB1bpYBSIOnAcX52iryS4vmmsiGsaniagXZENDunSO3wStGELR5hhZC5lg65UjqmMPM8lhdh82y8XXFN2CIS1g70EuVrwqaBFq0gml2v6XKxpqtE5LS6jSasJqwaLojp6XoRohWTSpSnCasJW/GE/X8AAAD//5UdLmUAAA3hSURBVO2dSYwcVxnH/1XV1cuMZx97VmM7kLBESYhJgpKgxA7OhRNXRBACIbFckBIkLtw4IHIFISQIERJXwhEQIcQhjhSbCBGDEsBOcGZfPPvSXV3Vxf971dUed2Z6GXf1VHe/kmaql6pXr7/366/+73vfe21881vf8XHANo8hLI4/hUI+d8ARR/+y7/vIpBP48TNn8dlTg5APY1SpFk+BwYNef+8mnvvVFXWCIS+00sb6ejkXD90/ip9+6UGY/NS1fITQPt976SouXpmClUwAYpAYbqadwonZVzCKm6XaGRpYDawGtvR9iP6B9rDaw5Yoa3dJcImS4NkWlQQiYVxKgocpCX6iJUHAbLsD+9fry3j2F2+2rIZ1sy4+8+lx/Jz6XWtYMtvuwP5zbgPP/+HfQWel1fpc7GS5DoG9axjffeqj0uXSna52BbakeTrwgY4SHHGjH6bTdcRVPtLLa2CP1PwSQqw/DnvEVT7Sy2tgj9T8Gth6zd/+wI5xpMttr5Guehu5nY5vU2Cly+wHUYKx8wTWiW2baUlQX9O0N7C+5BJoYOtDIt5HtzWwc/4gFikJ/AI9rHzSGG7aw9bXKG0NrIrDaklQHxExP7rNgR3Ewqj2sDFnsK7qdQCw5ykJ8loS1IVFfA9ub2D9AXpYAuu7sQf2R19+EI+eHoLHgYQWSwtoKt0CrMVMr+d++zZe+9t0uyRwB2GtBQxifuRc7IHtStt4/itncfZkf1xzkZsKZbWLycyE7/9OZhy0HbADBDb+HjaRsPDAPcM40ZNSQ7XVGqzT3zdJ7OXrN7G8tAXDMmN796xjikzRw1ISzMdcEoTweY5HrS03PL3VYgHTNmEKrDHeDgmsSIICv4Uxh0EJV/Uvxk0Qo6rFvT1pqrqBXcQA5pSGbQFgY8SCrkpjLFA3sAt+H4E9z6vTu7bAN7IxZtKlxMUChwC2X3lYDWxcmrCz6qGB7az2bvlPWzewi34/Zk88GSylEpEkkOQV1buXPp3uM7UGZMW2MkyZ+Bhdo8UOWPkOWJaBTIrL5cjnFkPoLf4WKLbVLtdF8DyOLEbE7CGA7Qs8bEQ0FVwPp08P4IdfvA82wdXAxp9VVUM2Vc718YOX3sbU1BpMDtxEscUOWC/v4eN3D+PFrz4cABvFp9ZlRmKBrFvA1168jGvvrcCy4wJsoQ8z1LCBTmn8/VqAvedjQ3iBwKYT8R51iaTVW7jQLY4sfuPXV3A9TsAuMQ47c/xJ6suiaGmwgTWwDTZoE4uLKbC9BPacBraJILTKpZoCbILrw87VtD5s4FGXfA1sqwDU7HrGFFiRBE/Qw4q+1Bq22VDE+XrxBVYGDiIKa2kNG2ckK9etOcAmKQn+UlwyPrjrH7BkfCgJgiiBBrZy43XiuzEFlhr2xDm2h44SdCKUlT5z84CVTtdKicHKHrbQgxnmwyoNG0EugZYElZCI93uRA0sfaRgJjMxTEhirtQG7XOjGjKxLwAXJo8iHDYH9JQcOMhw4aHy3Lt6N3qq1k/ttc4C1MEpgR4y1asAGplz2jhHYc/BJOlOqGm5fAVaGZn/z9UcaXrYuMFoLFHjHfeaFy/gvJzNGMjSrBqtMjC3UAexNethpaljftCMBtsDx6NHxHnz7wt1IcUJcBKoj2lbr0NKFJckl+Nmf/oPF+S0mv0QwrK6ANTA2/ypGzBo97AqBnWJYyzeTkQAbtnc421XVMXxR72NtAeVc2GCRtZkUzItMLF7EcWOdthAhwlTGSr+EuFroUsAWFLDRKUztWWPN5oGViwxWuaJ8GShDJxZexbC5KS/wrwqwa34GU8NPopBIU8I2XsNKvfSmLbCvBTi6avh5TBLYIXObh9QA7BaBfX/ocXiJY5FKgn0rrF/saAsYJoH1cjhJSTBg7pRsUVES7CCF9wYeg5fkmlUFr3SSfqAtELUFFLDODk6vvI5eo0ZgdwsW3h94HPnMMHyPKxjqTVugSRYwTAuWs4EzK5fQbWRLV63oYbOct/O/wcfgHJtAIR/fH+YofRr9oG0sYFg27N1FnFl9A2nDZR9MNCyV7EFRApl+nc+7BPZRZHvPEFihPDhJnan/aQtEZgGOrdppJDenKQkuIZW4NZ28IrCe5+FG933YHvwUf/qIq3DrTVugKRYIgE2vX8Pp1cuw7URtHla87HTyLqwM3N+UauqLaAuEFjCsBHpXr+IjO+/CpJ4NY74VPaycvGCNYmHwIeYTRDOVN6yg3msLlCwgI0mGj+HVf2DcuaG8a00aVjzsWiGDac6c9ZOZYEmhUqn6gbZAdBYw+UMwY0uvY9jY4EVuDQEf6GGlKgWObm1lc5gee7oY2pJYrO54iW30Fp0FgpDWGibn/oxeprGId63qYaU60uly2dma7juLzd57SDCBDcVEdPXVJXe6BTgsm9m6gZPLl5BOp6lhb2WDVfGwPr2sh0VjGIujnD2rUqy1h+10niL//HSKQ0tXMJanfpUBhFqBFQ3rui42OGYwe/IL8KyuIrSRV1lfoIMtYBRcjM/8Hv2Wg0TiVkhLTFLRw8oBAmyOAwhz/Q9iZ/BexmNzcpq8pTdtgQZbgOmDnCyQ3ryBcZEDjL/KT1qF+lUuVhVYmQqRdxwsGUNYOXmBEkHyYqPLjW2wBXRxLWUBDhgkbPTPvIYTzjTsZIpy4HbnWBXYYIg2jx3mFcwffxy5nlNMhNGjXi3FQYtUVgYL7O15jCy8hp5EQcmBvR0u+RhVgZWDJFrg0MsuJyewMv6ETuYWo+itwRYQ75pE7+wbOL5zHamUzdXZb9evcsGagJV4rIS3tlwTs6OfhyfphhTGetMWaJQFJBpgMp1wbPZl9KrOln1bOCu8Tk3ABtECj9lb1LLpU1gbfYzzw2TKzO36IixU77UF6rOAdLZM9Cz9HSOb7yBJ7Vre2QrLqwlYOVi8rOPksZ3LYXHiAnNkJ4taVkMbGlPvD2cBFWvdvYmR6T+ihyNbtp2kHNg/d6VmYEMvm8tlsW4N4Obk0ygwyVYvJnC4RtJnBRYIB04Hpl7BYH5eede96YTldqoZWDlRvGyOHtZhXHap95PYHn1ET50pt6h+XocFKAWsJLqWr2J45S0malsfGootL6wuYOVkNZBAaHe5zNDS2Hk4fWcIrZ4+U25Y/byaBSQqwDjr5gyOz7yMbq6GlUolqV15166w1Q1sGJeVMNeG34WVyfModA1zBEyg1Xq2gq31WyULiGdNMCqwiYHpV9HnrZakQHnctXRK8UHdwMp5QQfMUfJg0+YI2MR5+KneoqfV0JYbWT/fawGJCDC+6u6ijyNafdkZetY0/1L7hrH2nimPDwWsnCiDCdlsVoW6BNr1yXPwUgMaWjGO3g60gIq3ujvomb5IWOc4/JpEmrBKkkst26GBlcJDPSvyYCs1jLXJC/S0x+Dl8zptthbrd9QxIgNsGPkdetaL6NmZQZKgpghseUZWJbPcEbBBqIvZXE5OJchspUawPvY5atpB5noz30Dm5mhdW8n+HfOeJLUYuQ30zFxC7y4TW2xbyQDZ783GqmaQOwJWChc9K/JAhbvoaXftPmyMPIJ832lCy+Fbvq/dbbVmaNP3xWHJGlnUrIntOfTOv4mu7CI9a5KeNZAB1TpZ5Za5Y2ClQPG0tzRtHjnfwObgfdg9/oBaDDnIO9CdsXLjt/fzoHPFpBNkVt7BsYW3kDFddfuXaS8yklUvrGKvhgArBYXQip51KBEcxml3u0axdeIhuMdGeITFY+hxdSqtmKutN8kLkM3aXUH34lvo2voASa6wnqRelVjrfllYtRqkYcDKBQVakQh5drqynG0rGV45KoLs4CewO3wvowhDSh6ofFq5XYTjcrXWVh8XUwsEfRWDXlOFrHJr9KrvIrP8L6R8R3lT8aqiV8Wz1qNZyz9wQ4ENCxdoJYIg4IrH9ahlc2YG2e4J5Aiv0z0GkxUPlj/am/WlZUNow/jvw1slp2BLTglvnYntBSTXriGz+QFS+Q3e/i2VyCKeVSIBh5EA5XaIBFi5SCgRBFyBVvYCriPgUirk++9SqyL6HJ6jMpcz1DmQKTiK2+BbK2Xp7agtcHtbSCxV2osNxoC8C3uHoK5fR3prCknGWAXOEFbxqgJqI2AVK0QGrBQu0AYyQXJp88U/l7KB6x0UDDiJbng948h1T8LNDMGXpemZDMHf0eGtpZheRtEeLFcvZUmpspUeBE8/9Lz4st5VsUD5HS14bnCZIHEiSouqH8amxWVNCv4ZBYejVDmY2TWkqE3tzVnYzhq4wCBv9yZB5TKZhHTv7f9OJED5B4gU2PBiIbgSSVBSgd7WZTK4SAf1JeW3NG+l1UiZy9kMns3BB7ubyyPxz0wFP7tEQ/jScRMDUvuqPS9gFJ+LW1aSuGjg8Np6X2aBohNRX/riYwMiy7jxueETSv5xfVWODOVh8ncGJNgvswEsZxuJ3Cr/1mDl1hWUAqO0QQCpeNZbOrWRoAYVjNjDhhcJ9yG4Amqocz1+az3XU143fF9+BkleL3DKr/zkks9EiYJh06wm//hVpoEEWJqXRRNeuUBAq9pLOXrb3wLKh8o/toEymUAqFuSdTMAVC5t8zQQjOgTWILgWvarc0gVMU81iNdRzS2797IvI7V9WGAyOEYDVVfavwB2+2hQPW17HECjZh/DK3vMEZIFXbv+e8r4yFUfxx38BhqE0KIOy7Gn5NfXzMgsIU2KzElvFO5R6iS8WoRNAAy8qQAagCphy+98LqZQeJahSvmz/Bw5C1BQ614vpAAAAAElFTkSuQmCC;" vertex="1" parent="1">
          <mxGeometry x="1008" y="-157" width="62.17" height="60" as="geometry" />
        </mxCell>
        <mxCell id="wMCjaDI-WwXmUcqfbWN0-18" value="VPC&lt;br&gt;172.19.0.0/16" style="sketch=0;outlineConnect=0;gradientColor=none;html=1;whiteSpace=wrap;fontSize=12;fontStyle=1;shape=mxgraph.aws4.group;grIcon=mxgraph.aws4.group_vpc;strokeColor=#879196;fillColor=none;verticalAlign=top;align=left;spacingLeft=30;fontColor=#879196;dashed=0;" vertex="1" parent="1">
          <mxGeometry x="888" y="-200" width="200" height="130" as="geometry" />
        </mxCell>
        <mxCell id="wMCjaDI-WwXmUcqfbWN0-27" value="" style="sketch=0;outlineConnect=0;fontColor=#232F3E;gradientColor=none;fillColor=#8C4FFF;strokeColor=none;dashed=0;verticalLabelPosition=bottom;verticalAlign=top;align=center;html=1;fontSize=12;fontStyle=0;aspect=fixed;pointerEvents=1;shape=mxgraph.aws4.transit_gateway_attachment;" vertex="1" parent="1">
          <mxGeometry x="858" y="-164.75" width="59.5" height="59.5" as="geometry" />
        </mxCell>
        <mxCell id="wMCjaDI-WwXmUcqfbWN0-9" value="" style="sketch=0;points=[[0,0,0],[0.25,0,0],[0.5,0,0],[0.75,0,0],[1,0,0],[0,1,0],[0.25,1,0],[0.5,1,0],[0.75,1,0],[1,1,0],[0,0.25,0],[0,0.5,0],[0,0.75,0],[1,0.25,0],[1,0.5,0],[1,0.75,0]];outlineConnect=0;fontColor=#232F3E;fillColor=#ED7100;strokeColor=#ffffff;dashed=0;verticalLabelPosition=bottom;verticalAlign=top;align=center;html=1;fontSize=12;fontStyle=0;aspect=fixed;shape=mxgraph.aws4.resourceIcon;resIcon=mxgraph.aws4.eks;" vertex="1" parent="1">
          <mxGeometry x="893" y="-733" width="63.5" height="63.5" as="geometry" />
        </mxCell>
        <mxCell id="wMCjaDI-WwXmUcqfbWN0-1" value="" style="sketch=0;points=[[0,0,0],[0.25,0,0],[0.5,0,0],[0.75,0,0],[1,0,0],[0,1,0],[0.25,1,0],[0.5,1,0],[0.75,1,0],[1,1,0],[0,0.25,0],[0,0.5,0],[0,0.75,0],[1,0.25,0],[1,0.5,0],[1,0.75,0]];outlineConnect=0;fontColor=#232F3E;fillColor=#8C4FFF;strokeColor=#ffffff;dashed=0;verticalLabelPosition=bottom;verticalAlign=top;align=center;html=1;fontSize=12;fontStyle=0;aspect=fixed;shape=mxgraph.aws4.resourceIcon;resIcon=mxgraph.aws4.transit_gateway;" vertex="1" parent="1">
          <mxGeometry x="634" y="-343" width="63" height="63" as="geometry" />
        </mxCell>
        <mxCell id="wMCjaDI-WwXmUcqfbWN0-31" style="edgeStyle=orthogonalEdgeStyle;rounded=0;orthogonalLoop=1;jettySize=auto;html=1;exitX=1;exitY=0.25;exitDx=0;exitDy=0;exitPerimeter=0;endArrow=none;endFill=0;curved=1;" edge="1" parent="1" source="wMCjaDI-WwXmUcqfbWN0-1" target="wMCjaDI-WwXmUcqfbWN0-20">
          <mxGeometry relative="1" as="geometry">
            <Array as="points">
              <mxPoint x="734" y="-339" />
              <mxPoint x="734" y="-573" />
            </Array>
          </mxGeometry>
        </mxCell>
        <mxCell id="wMCjaDI-WwXmUcqfbWN0-32" style="edgeStyle=orthogonalEdgeStyle;rounded=0;orthogonalLoop=1;jettySize=auto;html=1;exitX=1;exitY=0.5;exitDx=0;exitDy=0;exitPerimeter=0;endArrow=none;endFill=0;curved=1;" edge="1" parent="1" source="wMCjaDI-WwXmUcqfbWN0-1" target="wMCjaDI-WwXmUcqfbWN0-26">
          <mxGeometry relative="1" as="geometry" />
        </mxCell>
        <mxCell id="wMCjaDI-WwXmUcqfbWN0-33" style="edgeStyle=orthogonalEdgeStyle;rounded=0;orthogonalLoop=1;jettySize=auto;html=1;exitX=1;exitY=0.75;exitDx=0;exitDy=0;exitPerimeter=0;curved=1;" edge="1" parent="1" source="wMCjaDI-WwXmUcqfbWN0-1" target="wMCjaDI-WwXmUcqfbWN0-27">
          <mxGeometry relative="1" as="geometry">
            <Array as="points">
              <mxPoint x="754" y="-299" />
              <mxPoint x="754" y="-135" />
            </Array>
          </mxGeometry>
        </mxCell>
        <mxCell id="wMCjaDI-WwXmUcqfbWN0-15" value="VPC&lt;br&gt;172.16.0.0/16" style="sketch=0;outlineConnect=0;gradientColor=none;html=1;whiteSpace=wrap;fontSize=12;fontStyle=0;shape=mxgraph.aws4.group;grIcon=mxgraph.aws4.group_vpc;strokeColor=#879196;fillColor=none;verticalAlign=top;align=left;spacingLeft=30;fontColor=#879196;dashed=0;" vertex="1" parent="1">
          <mxGeometry x="514" y="-437" width="250" height="220.5" as="geometry" />
        </mxCell>
        <mxCell id="wMCjaDI-WwXmUcqfbWN0-23" value="Sophos Firewall&lt;div&gt;&lt;br&gt;&lt;/div&gt;" style="sketch=0;points=[[0,0,0],[0.25,0,0],[0.5,0,0],[0.75,0,0],[1,0,0],[0,1,0],[0.25,1,0],[0.5,1,0],[0.75,1,0],[1,1,0],[0,0.25,0],[0,0.5,0],[0,0.75,0],[1,0.25,0],[1,0.5,0],[1,0.75,0]];outlineConnect=0;fontColor=#232F3E;fillColor=#DD344C;strokeColor=#ffffff;dashed=0;verticalLabelPosition=bottom;verticalAlign=top;align=center;html=1;fontSize=12;fontStyle=0;aspect=fixed;shape=mxgraph.aws4.resourceIcon;resIcon=mxgraph.aws4.network_firewall;" vertex="1" parent="1">
          <mxGeometry x="257" y="-350" width="78" height="78" as="geometry" />
        </mxCell>
      </root>
    </mxGraphModel>
  </diagram>
</mxfile>
